<svg width="17" height="16" viewBox="0 0 17 16" fill="none" xmlns="http://www.w3.org/2000/svg">
<path d="M7.73915 0.84164C7.97864 0.104591 9.02136 0.104592 9.26085 0.84164L10.5655 4.85704C10.6726 5.18666 10.9798 5.40983 11.3264 5.40983H15.5484C16.3234 5.40983 16.6456 6.40152 16.0186 6.85704L12.6029 9.3387C12.3226 9.54241 12.2052 9.90351 12.3123 10.2331L13.617 14.2485C13.8565 14.9856 13.0129 15.5985 12.3859 15.143L8.97023 12.6613C8.68984 12.4576 8.31016 12.4576 8.02977 12.6613L4.61407 15.143C3.98709 15.5985 3.14351 14.9856 3.38299 14.2485L4.68768 10.2331C4.79478 9.90351 4.67745 9.54241 4.39706 9.3387L0.981353 6.85704C0.354382 6.40152 0.676603 5.40983 1.45158 5.40983H5.67363C6.02021 5.40983 6.32737 5.18666 6.43447 4.85704L7.73915 0.84164Z" fill="#FAD285"/>
</svg>
