<svg width="235" height="32" viewBox="0 0 235 32" fill="none" xmlns="http://www.w3.org/2000/svg">
<g clip-path="url(#clip0_57_170)">
<path d="M207.132 1.75586C209.708 1.75586 212.284 1.75586 214.937 1.75586C217.527 4.76154 217.527 4.76154 218.133 6.06836C218.943 7.68647 219.903 9.15128 220.94 10.6311C221.357 11.2289 221.763 11.8337 222.171 12.438C223.199 13.956 224.239 15.4658 225.279 16.9754C225.276 16.8365 225.274 16.6976 225.271 16.5546C225.248 15.229 225.225 13.9035 225.202 12.578C225.191 11.897 225.179 11.2159 225.167 10.5349C225.153 9.74729 225.14 8.95965 225.126 8.17202C225.122 7.93406 225.118 7.69611 225.113 7.45094C225.082 5.55174 225.084 3.65618 225.084 1.75586C227.981 1.75586 230.879 1.75586 233.864 1.75586C233.864 11.2856 233.864 20.8154 233.864 30.6339C231.289 30.6339 228.713 30.6339 226.059 30.6339C225.11 29.3292 224.172 28.0285 223.267 26.6949C223.045 26.3699 222.824 26.045 222.602 25.72C222.494 25.5609 222.385 25.4017 222.273 25.2377C221.825 24.5802 221.376 23.9238 220.925 23.2681C220.8 23.0858 220.8 23.0858 220.672 22.8999C219.708 21.4993 218.736 20.1047 217.763 18.7103C217.636 18.5276 217.508 18.345 217.377 18.1568C217.264 17.9948 217.151 17.8327 217.035 17.6658C216.655 17.1145 216.284 16.5568 215.913 15.9998C215.913 20.829 215.913 25.6583 215.913 30.6339C213.015 30.6339 210.118 30.6339 207.132 30.6339C207.132 21.1042 207.132 11.5744 207.132 1.75586Z" fill="#A1A1A1"/>
<path d="M180.791 1.75586C183.817 1.75586 186.844 1.75586 189.962 1.75586C189.973 3.77472 189.973 3.77472 189.984 5.83437C189.99 6.68892 189.96 7.54346 190.003 8.39801C190.013 9.75327 190.023 11.1085 190.029 12.4638C190.034 13.5569 190.042 14.65 190.052 15.7431C190.055 16.1593 190.058 16.5756 190.059 16.9918C190.061 17.5766 190.066 18.1612 190.073 18.7459C190.072 18.9166 190.072 19.0872 190.072 19.2631C190.09 20.4738 190.208 21.8052 191.018 22.7658C191.796 23.4145 192.724 23.4527 193.693 23.4022C194.404 23.3104 194.636 23.2259 195.23 22.7803C196.045 21.6603 196.07 20.7086 196.073 19.3661C196.075 19.1757 196.077 18.9852 196.079 18.789C196.085 18.1608 196.088 17.5327 196.091 16.9045C196.095 16.4684 196.099 16.0323 196.103 15.5963C196.113 14.4495 196.121 13.3027 196.128 12.156C196.137 10.7795 196.149 9.40303 196.161 8.02657C196.178 5.93635 196.191 3.84612 196.206 1.75586C199.232 1.75586 202.258 1.75586 205.376 1.75586C205.4 6.56457 205.4 6.56457 205.405 8.62781C205.408 10.031 205.413 11.4341 205.421 12.8372C205.427 13.9695 205.43 15.1018 205.432 16.2342C205.433 16.6643 205.435 17.0945 205.438 17.5246C205.466 21.3637 205.292 24.953 202.487 27.8969C199.602 30.5662 196.07 31.3835 192.235 31.2749C189.262 31.1286 186.34 30.3162 184.108 28.2924C183.974 28.1808 183.84 28.0691 183.702 27.954C181.873 26.3179 180.925 23.9668 180.756 21.5472C180.744 21.0191 180.743 20.4924 180.747 19.9642C180.747 19.766 180.747 19.5678 180.747 19.3636C180.747 18.7154 180.75 18.0672 180.753 17.419C180.754 16.9668 180.754 16.5146 180.755 16.0624C180.756 14.8775 180.76 13.6926 180.764 12.5076C180.769 11.0831 180.771 9.65863 180.773 8.23412C180.777 6.07469 180.784 3.9153 180.791 1.75586Z" fill="#A1A1A1"/>
<path d="M175.523 2.92638C177.153 4.22314 178.429 6.00258 178.785 8.08949C178.849 8.66695 178.851 9.23045 178.847 9.81129C178.846 10.0206 178.845 10.2299 178.844 10.4455C178.842 10.6835 178.842 10.6835 178.84 10.9264C177.659 10.936 176.479 10.9431 175.298 10.9478C174.896 10.9498 174.495 10.9524 174.093 10.9558C173.516 10.9606 172.939 10.9628 172.361 10.9645C172.182 10.9665 172.002 10.9685 171.817 10.9706C171.649 10.9706 171.481 10.9707 171.308 10.9707C171.087 10.972 171.087 10.972 170.862 10.9733C170.386 10.9192 170.075 10.7883 169.669 10.5361C169.528 10.1771 169.528 10.1771 169.462 9.76785C169.364 9.30814 169.294 9.00027 169.047 8.59712C168.482 8.26558 167.976 8.22824 167.328 8.19468C166.708 8.37356 166.418 8.51924 165.962 8.97516C165.848 9.54393 165.848 9.54393 165.962 10.1459C166.798 10.9873 167.881 11.3945 168.95 11.8654C169.141 11.9513 169.332 12.0372 169.528 12.1257C170.387 12.5103 171.247 12.8881 172.117 13.2465C175.132 14.4943 177.736 16.0729 179.048 19.2C179.276 19.8337 179.388 20.3999 179.425 21.0727C179.433 21.2063 179.44 21.3398 179.448 21.4775C179.527 23.9825 178.769 26.3134 177.149 28.229C174.642 30.7273 171.282 31.2976 167.889 31.2922C164.258 31.2828 161.09 30.7108 158.352 28.1345C156.184 25.7585 155.815 22.9908 155.815 19.902C158.906 19.902 161.997 19.902 165.181 19.902C165.31 20.6747 165.439 21.4474 165.572 22.2435C166.084 23.2249 166.084 23.2249 166.937 23.6093C168.074 23.7231 168.074 23.7231 169.072 23.2435C169.551 22.7495 169.653 22.5596 169.742 21.8776C169.732 21.2484 169.732 21.2484 169.276 20.8852C168.582 20.4112 167.879 20.0846 167.108 19.7557C166.956 19.689 166.803 19.6224 166.646 19.5538C165.833 19.2 165.015 18.8566 164.195 18.5194C161.093 17.2434 158.079 15.9066 156.596 12.6825C155.907 10.6666 155.928 8.45177 156.764 6.48965C157.056 5.91006 157.371 5.39254 157.767 4.8776C157.895 4.69248 158.024 4.50736 158.157 4.31663C162.228 -0.412629 170.684 -0.318527 175.523 2.92638Z" fill="#A1A1A1"/>
<path d="M86.352 2.3418C88.0905 2.3418 89.8291 2.3418 91.6203 2.3418C92.6758 4.21209 93.724 6.08624 94.7666 7.96375C94.8899 8.18583 95.0133 8.40791 95.1403 8.63672C95.733 9.70417 96.3253 10.7718 96.9173 11.8396C97.1848 12.322 97.4523 12.8042 97.7199 13.2865C97.9089 13.6272 98.0977 13.968 98.2865 14.3089C98.4017 14.5164 98.5169 14.724 98.6355 14.9378C98.7365 15.1199 98.8374 15.302 98.9414 15.4896C99.2242 15.9899 99.5197 16.4831 99.8154 16.9759C99.8798 12.1467 99.9442 7.31741 100.011 2.3418C101.878 2.3418 103.745 2.3418 105.669 2.3418C105.669 11.6784 105.669 21.015 105.669 30.6345C103.995 30.6345 102.321 30.6345 100.596 30.6345C99.3071 28.3684 98.0263 26.1009 96.791 23.8052C95.6531 21.6909 94.4793 19.5984 93.2895 17.513C92.859 16.7509 92.4356 15.9849 92.0105 15.2198C91.9461 20.3067 91.8817 25.3935 91.8154 30.6345C90.0125 30.6345 88.2096 30.6345 86.352 30.6345C86.352 21.2979 86.352 11.9613 86.352 2.3418Z" fill="#A1A1A1"/>
<path d="M41.4739 2.3418C54.9502 2.3418 54.9502 2.3418 57.5029 4.6764C59.7468 6.98289 59.9065 9.6513 59.8695 12.6901C59.7998 14.9251 59.0132 16.8124 57.4191 18.3929C56.8097 18.9439 56.2067 19.4468 55.5227 19.9028C55.5719 20.0027 55.6211 20.1026 55.6717 20.2055C56.1886 21.2562 56.7045 22.3074 57.2198 23.3589C57.4116 23.7499 57.6037 24.1409 57.796 24.5317C58.0742 25.0971 58.3515 25.663 58.6287 26.229C58.7133 26.4004 58.7979 26.5719 58.885 26.7485C59.5107 28.0294 60.0449 29.3122 60.5959 30.6345C58.471 30.6345 56.3461 30.6345 54.1569 30.6345C53.1969 28.7338 52.2528 26.8255 51.3208 24.911C51.1953 24.6535 51.0693 24.3961 50.9429 24.1389C50.7631 23.7729 50.5848 23.4061 50.4069 23.0392C50.3024 22.8251 50.1978 22.611 50.0902 22.3903C49.8642 21.854 49.8642 21.854 49.8642 21.2686C48.9627 21.2686 48.0613 21.2686 47.1325 21.2686C47.1325 24.3594 47.1325 27.4501 47.1325 30.6345C45.2652 30.6345 43.3978 30.6345 41.4739 30.6345C41.4739 21.2979 41.4739 11.9613 41.4739 2.3418ZM47.1325 7.41497C47.1325 10.2481 47.1325 13.0813 47.1325 16.0003C51.0761 16.3203 51.0761 16.3203 52.9861 15.2198C53.9568 14.2492 54.2129 13.1764 54.2178 11.8296C54.195 10.6476 54.1372 9.59393 53.2994 8.67869C51.4483 7.05726 49.6231 7.41497 47.1325 7.41497Z" fill="#A1A1A1"/>
<path d="M79.9297 4.86941C83.02 8.06029 83.6969 12.6992 83.6656 16.9608C83.5764 21.3771 82.5855 25.5141 79.3276 28.6827C77.1277 30.6731 74.4588 31.3264 71.5517 31.1819C69.2734 30.9064 67.5807 30.2005 65.8642 28.6827C65.7271 28.5617 65.59 28.4407 65.4488 28.3161C63.9585 26.9163 63.1546 25.3634 62.4983 23.451C62.4502 23.3124 62.4022 23.1738 62.3526 23.0311C61.6664 20.9134 61.4994 18.7507 61.5105 16.5363C61.512 16.1924 61.512 16.1924 61.5134 15.8415C61.5682 11.7461 62.5324 7.74595 65.3642 4.63389C69.5876 0.660432 75.8026 0.997334 79.9297 4.86941ZM69.278 8.59654C67.0337 11.5089 67.1253 15.9904 67.5151 19.4715C67.8159 21.6258 68.4264 23.7547 70.1942 25.1537C71.3253 25.8328 72.3778 25.8957 73.6691 25.7558C75.0564 25.3963 75.885 24.4185 76.5959 23.2193C78.2734 19.7126 78.1897 14.794 77.1812 11.1217C76.6136 9.57087 75.8693 8.3086 74.4495 7.41438C72.5046 6.65618 70.685 7.04013 69.278 8.59654Z" fill="#A1A1A1"/>
<path d="M35.491 5.08767C38.6069 8.46202 39.4003 13.1354 39.2608 17.5915C39.0504 21.9646 38.0173 26.008 34.7304 29.1121C32.5573 30.8841 29.9247 31.5527 27.1549 31.4169C24.3165 31.0733 21.943 29.7422 20.0962 27.5511C17.0516 23.3001 16.5428 17.5591 17.3295 12.5095C18.0238 8.88924 19.7191 5.67598 22.7151 3.46039C26.8668 0.988229 32.0977 1.73624 35.491 5.08767ZM24.9011 8.67304C24.7229 8.91152 24.5518 9.15554 24.3889 9.40475C24.2783 9.57264 24.2783 9.57264 24.1656 9.74392C22.9783 11.8205 22.9195 14.3706 22.9377 16.6974C22.9383 16.8294 22.9389 16.9613 22.9395 17.0973C22.9586 19.9722 23.1359 22.7859 25.2822 24.9322C26.3403 25.862 27.139 26.0827 28.523 26.0496C29.914 25.8989 30.8329 25.1684 31.6991 24.1029C33.1751 21.8645 33.2369 19.0404 33.2304 16.4535C33.2335 16.2053 33.2366 15.957 33.2399 15.7012C33.2411 13.2353 32.8995 10.8566 31.4133 8.81938C30.4685 7.88024 29.4692 7.36581 28.145 7.18523C26.9036 7.32848 25.7526 7.72858 24.9011 8.67304Z" fill="#A1A1A1"/>
<path d="M143.121 4.14829C145.957 6.77176 147.28 10.7968 147.449 14.5778C147.602 19.3244 147.211 24.0388 144.052 27.8564C142.073 29.9549 139.649 31.0676 136.782 31.2176C133.791 31.2278 131.277 30.2682 129.118 28.1696C125.556 24.2942 125.212 19.2417 125.376 14.2443C125.598 10.2543 127.127 6.62794 130.059 3.90286C130.683 3.44249 131.316 3.07345 132.011 2.73213C132.22 2.61944 132.429 2.50676 132.645 2.39066C136.35 1.15544 140.044 1.78633 143.121 4.14829ZM133.097 8.55682C132.165 9.83406 131.66 11.327 131.425 12.8785C131.404 13.0213 131.382 13.1642 131.36 13.3114C130.928 16.8144 130.915 21.2309 133.035 24.1955C133.845 25.1408 134.607 25.6565 135.849 25.8289C137.262 25.8934 138.268 25.6117 139.357 24.7093C141.663 22.3555 141.641 18.5247 141.631 15.4427C141.581 12.822 141.186 10.2229 139.376 8.20774C138.513 7.4089 137.544 7.12317 136.401 6.95164C135.058 7.15303 134.024 7.53697 133.097 8.55682Z" fill="#A1A1A1"/>
<path d="M107.815 2.3418C113.482 2.3418 119.148 2.3418 124.986 2.3418C124.986 4.08033 124.986 5.81887 124.986 7.61009C123.119 7.61009 121.252 7.61009 119.328 7.61009C119.328 15.2081 119.328 22.8062 119.328 30.6345C117.396 30.6345 115.464 30.6345 113.474 30.6345C113.474 23.0364 113.474 15.4384 113.474 7.61009C111.607 7.61009 109.739 7.61009 107.815 7.61009C107.815 5.87155 107.815 4.13302 107.815 2.3418Z" fill="#A1A1A1"/>
<path d="M0.888611 2.3418C6.55495 2.3418 12.2213 2.3418 18.0593 2.3418C18.0593 4.08033 18.0593 5.81887 18.0593 7.61009C16.1276 7.61009 14.1959 7.61009 12.2057 7.61009C12.2057 15.2081 12.2057 22.8062 12.2057 30.6345C10.3384 30.6345 8.47105 30.6345 6.54715 30.6345C6.54715 23.0364 6.54715 15.4384 6.54715 7.61009C4.67983 7.61009 2.81251 7.61009 0.888611 7.61009C0.888611 5.87155 0.888611 4.13302 0.888611 2.3418Z" fill="#A1A1A1"/>
</g>
<defs>
<clipPath id="clip0_57_170">
<rect width="234.537" height="32" fill="white" transform="translate(0.108093)"/>
</clipPath>
</defs>
</svg> 